
724 bytes → 620 bytes 85.64%
<svg xmlns="http://www.w3.org/2000/svg" width="919" height="338" fill="none"><path fill="#fff" fill-rule="evenodd" d="M41.026 84.13c-1.54 1.03.508 4.277 1.086 7.678.662 3.895 1.3 7.804 1.512 11.754.216 4.009-1.638 12.097-5.638 16.597 2.5-18-11.55-25.272-11.957-35.629-.073-1.87-.086-4.293 1.957-5.87C167.269-2.175 347.022-17.784 502.582 18.474c46.904 14.464 298.135 103.271 382.284 215.871 4.666 5.093 11.622 13.803 18.058 24.129 6.521 10.463 12.835 23.104 15.411 35.65 1.66 8.081-.616 14.998-5.505 20.232-4.54 4.861-10.953 7.894-17.27 9.859-12.656 3.938-28.152 4.558-38.506 4.023-284.595-6.039-450.568-20.754-849.117 9.406-3.95-2.486-7.45-3.986-7.937-7.036 321.486-33.467 574.656-23.366 857.607-17.362l.118.006c9.465.5 23.049-.146 33.379-3.359 5.2-1.618 8.775-3.646 10.764-5.776 1.641-1.756 2.435-3.758 1.774-6.976-2.064-10.052-7.352-20.952-13.448-30.733-6.054-9.713-12.582-17.813-16.619-22.182l-.275-.297-.241-.325C844.86 205.587 730.986 106.659 498.557 32.939c-201.429-54.72-396.495 12.374-457.53 51.19Z" clip-rule="evenodd"/></svg>