<svg width="500" height="627" viewBox="0 0 500 627" fill="none" xmlns="http://www.w3.org/2000/svg">
<path d="M86.5 458.981C75.5 459.981 61.5 461.774 37.885 508.546C-3.93931 603.217 8.94046 617.317 13.4256 611.725C17.9107 606.133 50.066 548.364 68 505.981C84.1203 469.623 87.2738 460.7 93 461.981C97.1902 459.173 50.9153 611.725 52.8549 610.75C60.0068 607.156 118.525 464.512 122.675 463.753C127.86 462.805 91.3297 613.914 102.171 613.914C111.889 614.113 160 474.481 167.242 463.753C174.484 453.025 139.737 613.914 150.578 613.914C160.296 614.113 203.655 476.084 211.809 463.753C219.963 451.422 200.714 521.367 200.714 521.367C189.873 575.949 192.814 611.725 200.968 611.725C209.121 611.725 221.201 589.975 245.088 551.741C265.3 519.388 283.587 465.653 267.279 461.774C254.167 456.516 222.013 527.314 231.258 581.104C243.054 647.217 249.978 610.045 307.902 501.787C367.427 383.356 395.594 313.172 422 241.981C512.5 30.9818 498.822 -19.8903 473 20.9814C466.682 30.9818 423.158 97.9476 402.5 177.48L365.774 308.313L344.554 403.225L323.335 509.088C318.685 536.807 317.547 563.845 319.476 578.446C321.405 593.048 325.263 614.951 332.979 618.602C355.798 627.882 387.818 542.034 429.5 461.981C441.582 446.349 443.737 471.851 425 564.981C423.461 573.757 421.663 574.694 437.5 563.981" stroke="black" stroke-width="15" stroke-linecap="round"/>
</svg>
