
756 bytes → 647 bytes 85.58%
<svg xmlns="http://www.w3.org/2000/svg" width="500" height="627" fill="none"><path stroke="#000" stroke-linecap="round" stroke-width="15" d="M86.5 458.981c-11 1-25 2.793-48.615 49.565-41.824 94.671-28.945 108.771-24.46 103.179 4.486-5.592 36.641-63.361 54.575-105.744 16.12-36.358 19.274-45.281 25-44 4.19-2.808-42.085 149.744-40.145 148.769 7.152-3.594 65.67-146.238 69.82-146.997 5.185-.948-31.345 150.161-20.504 150.161 9.718.199 57.829-139.433 65.071-150.161 7.242-10.728-27.505 150.161-16.664 150.161 9.718.199 53.077-137.83 61.231-150.161 8.154-12.331-11.095 57.614-11.095 57.614-10.841 54.582-7.9 90.358.254 90.358 8.153 0 20.233-21.75 44.12-59.984 20.212-32.353 38.499-86.088 22.191-89.967-13.112-5.258-45.266 65.54-36.021 119.33 11.796 66.113 18.72 28.941 76.644-79.317C367.427 383.356 395.594 313.172 422 241.981c90.5-211 76.822-261.871 51-221-6.318 10-49.842 76.967-70.5 156.499l-36.726 130.833-21.22 94.912-21.219 105.863c-4.65 27.719-5.788 54.757-3.859 69.358 1.929 14.602 5.787 36.505 13.503 40.156 22.819 9.28 54.839-76.568 96.521-156.621 12.082-15.632 14.237 9.87-4.5 103-1.539 8.776-3.337 9.713 12.5-1"/></svg>