<svg xmlns="http://www.w3.org/2000/svg" width="918" height="330" fill="none"><path fill="#fff" fill-rule="evenodd" d="M497.571 31.46C273.569-20.65 93.754 41.504 34.501 80.18c-3.47 2.264-4.736 1.468-7-2C123.225 17.676 331.5-25.32 501.285 16.924l.31.072.303.098C734.144 92.49 852.74 191.2 883.88 232.867c4.666 5.093 11.622 13.803 18.058 24.129 6.521 10.463 12.835 23.104 15.411 35.65 1.66 8.081-.616 14.998-5.505 20.232-4.54 4.861-10.953 7.894-17.27 9.859-12.656 3.938-28.152 4.558-38.506 4.023C554.5 308.79 198 314.68 5.5 329.18c-4.134.248-4 .5-5.5 0 1-1 1.5-1 5.5-2 289.5-31 566.299-21.455 851.121-15.412l.118.006c9.465.5 23.049-.146 33.379-3.359 5.2-1.618 8.775-3.646 10.764-5.776 1.641-1.756 2.435-3.758 1.774-6.976-2.065-10.052-7.352-20.952-13.448-30.733-6.054-9.713-12.582-17.813-16.619-22.181l-.275-.298-.241-.325C843.874 204.108 728.599 106.513 497.571 31.46Z" clip-rule="evenodd"/></svg>