<svg width="52" height="69" viewBox="0 0 52 69" fill="none" xmlns="http://www.w3.org/2000/svg">
<path d="M47.9359 61.8884C46.8508 62.0399 46.6083 61.5533 46.9105 59.5522C46.9105 59.5522 48.1412 50.9864 46.9105 52.5438C45.6797 54.1012 44.107 56.5287 41.578 60.331C38.1794 65.6974 36.8607 68.1181 36.0403 67.7288C35.2198 67.3394 34.8097 65.0033 34.6046 63.4458C34.3995 61.8884 34.5205 59.0045 35.0149 56.048L37.2709 44.7566L39.527 34.6333L43.0136 20.6164C45.21 12.1334 46.4562 7.85923 48.7563 2.70588C49.9378 0.709425 50.5133 0.169201 51.0124 2.70588C51.2667 4.94225 51.146 6.32001 50.6022 8.93562C49.0847 17.4429 47.9621 21.79 45.4748 28.7929C42.6673 36.3861 39.7028 42.6374 33.374 55.2693C27.2156 66.816 26.4794 70.7809 25.2253 63.7293C24.2423 57.992 27.661 50.4407 29.0551 51.0015C30.7889 51.4152 28.8447 57.1466 26.6957 60.5974C24.1561 64.6755 22.8717 66.9953 22.0048 66.9953C21.1379 66.9953 20.8253 63.1794 21.9779 57.3577C21.9779 57.3577 24.0244 49.8973 23.1575 51.2126C22.2906 52.5278 17.6806 67.2501 16.6474 67.2288C15.4948 67.2288 18.9703 51.1114 18.4191 51.2126C17.5522 52.5278 12.5339 67.2501 11.5008 67.2288C10.3481 67.2288 14.232 51.1114 13.6808 51.2126C13.2395 51.2935 7.01788 66.5079 6.25749 66.8914C4.51699 67.4545 6.15128 62.0935 9.72382 51.1678M9.86727 50.7293C8.13348 50.7293 6.29154 52.5646 4.6659 55.9902C0.219139 66.0878 1.58852 67.5918 2.06537 66.9953C2.54223 66.3989 5.70359 60.0275 7.61033 55.5068C8.59439 53.2559 9.39155 51.831 9.72382 51.1678M9.86727 50.7293C9.92714 50.7293 9.87123 50.8736 9.72382 51.1678M9.86727 50.7293C9.81911 50.8764 9.77129 51.0226 9.72382 51.1678" stroke="white" stroke-linecap="round"/>
</svg>
