<svg width="53" height="66" viewBox="0 0 53 66" fill="none" xmlns="http://www.w3.org/2000/svg">
<path d="M9.52206 48.3901C7.78827 48.3901 5.94632 50.2254 4.32068 53.651C-0.126076 63.7486 1.2433 65.2526 1.72016 64.6562C2.19701 64.0597 5.35838 57.6883 7.26512 53.1677C8.68575 49.9181 9.71686 48.3901 9.52206 48.3901ZM9.52206 48.3901C5.8501 59.6108 4.14865 65.1228 5.91228 64.5522C6.67266 64.1688 12.8943 48.9543 13.3356 48.8734C13.8868 48.7722 10.853 64.6562 12.0057 64.6561C13.0388 64.6774 17.207 50.1886 18.0739 48.8734C18.6251 48.7722 15.5914 64.6562 16.744 64.6561C17.7772 64.6774 21.9454 50.1886 22.8123 48.8734C23.6792 47.5581 21.6327 55.0185 21.6327 55.0185C20.4801 60.8402 20.7927 64.6562 21.6596 64.6562C22.5265 64.6562 23.8109 62.3363 26.3505 58.2582C28.4995 54.8074 30.4437 49.0761 28.7099 48.6623C27.3158 48.1015 23.2764 55.601 24.2593 61.3383C24.592 65.852 24.99 67.748 31.1556 54.6714C32.1989 52.5185 33.1462 50.5539 34.0133 48.738M52 62.0256C51.1331 64.656 49.2033 65.9624 49.3993 62.0256C49.4584 60.7102 50.9368 48.2884 50.207 48.8733C49.3401 50.1885 45.1719 64.6774 44.1388 64.656C42.9861 64.6561 46.0199 48.7722 45.4687 48.8733C44.6018 50.1885 40.4336 64.6773 39.4004 64.656C38.2478 64.6561 42.174 45.5454 40.7303 48.8733C39.2867 52.2013 35.8191 63.3409 34.9522 64.0383C34.0853 64.7357 32.6194 64.4779 32.3277 62.7231C32.1323 61.1894 32.2476 58.3496 32.7185 55.4382L34.0133 48.738M34.0133 48.738L34.8673 44.3192L37.0161 34.3504L40.337 20.5474C42.4291 12.194 43.616 7.98503 45.8068 2.91035C46.9321 0.944367 47.4802 0.412389 47.9557 2.91035C48.7489 8.81381 47.5279 14.5479 42.6812 28.5992C40.47 34.7823 38.1565 40.0619 34.0133 48.738Z" stroke="white" stroke-linecap="round"/>
</svg>
